# xmcd
#
# Track frame offsets: 
#        150
#        13795
#        26135
#        39567
#        50365
#        61432
#        72795
#        84585
#        94515
#        107110
#        118535
#
# Disc length: 1707 seconds
#
# Revision: 1
# Processed by: cddbd v1.5.2PL0 Copyright (c) Steve Scherf et al.
# Submitted via: ExactAudioCopy v1.0b1
#
DISCID=8c06a90b
DTITLE=Various Artist - The Best of Classic Country vol. 1
DYEAR=2003
DGENRE=Country
TTITLE0=Loretta Lynn - Coal Miner's Daughter
TTITLE1=Tom T. Hall - The Year That Clayton Delaney Died
TTITLE2=Waylon Jennings and Willie Nelson - Good Hearted Woman
TTITLE3=Leroy Van Dyke - Walk On By
TTITLE4=Rodger Miller - King of the Road
TTITLE5=Sonny James - Young Love
TTITLE6=Tennessee Ernie Ford - Sixteen Tons
TTITLE7=Dave Dudley - Truck Drivin' Son-Of-A-Gun
TTITLE8=George Jones - White Lightning
TTITLE9=Kitty Wells - It Wasn't God Who Made Honky Tonk Angels
TTITLE10=Webb Pierce - In the Jailhouse Now
EXTD=YEAR: 2003
EXTT0=
EXTT1=
EXTT2=
EXTT3=
EXTT4=
EXTT5=
EXTT6=
EXTT7=
EXTT8=
EXTT9=
EXTT10=
PLAYORDER=
